PathFileType	4	(X/Y/Z)	C:/Users/beibeiliu/ov580/test_trc\sequence.19_training_dense_right.trc
DataRate	CameraRate	NumFrames	NumMarkers	Units	OrigDataRate	OrigDataStartFrame	OrigNumFrames
120	120	8	19	mm	120	130	344
Frame#	Time	ThumbCMC			ThumbMCP			ThumbIP			ThumbTip			IndexMCP			IndexPIP			IndexTip			MiddleMCP			MiddlePIP			MiddleTip			RingMCP			RingPIP			RingTip			PinkyMCP			PinkyPIP			PinkyTip			BackHand1			BackHand2			BackHand3	
		X0	Y0	Z0	X1	Y1	Z1	X2	Y2	Z2	X3	Y3	Z3	X4	Y4	Z4	X5	Y5	Z5	X6	Y6	Z6	X7	Y7	Z7	X8	Y8	Z8	X9	Y9	Z9	X10	Y10	Z10	X11	Y11	Z11	X12	Y12	Z12	X13	Y13	Z13	X14	Y14	Z14	X15	Y15	Z15	X16	Y16	Z16	X17	Y17	Z17	X18	Y18	Z18	
129	1.075	282.563	39.3221	55.0467	296.993	52.8135	35.3446	312.521	60.0189	19.6337	326.946	55.3966	-0.879107	334.205	32.3296	12.1862	323.421	41.7458	-9.03998	294.099	41.7962	-0.793841	327.59	19.7492	3.17496	303.533	25.9778	-14.3839	283.196	30.5414	11.8955	314.253	5.09976	1.37709	292.414	15.4621	-8.45389	276.245	18.0639	18.1057	304.069	-9.39404	5.51481	281.435	4.45785	-0.0643457	273.884	9.57298	22.1746	305.997	-8.46704	48.6425	281.785	-7.43961	68.7348	299.352	16.6728	66.3119	
130	1.08333	281.143	39.6094	56.2449	297.352	57.1005	33.9627	313.552	60.981	19.2175	325.928	64.0156	3.41496	333.915	38.9001	15.68	321.262	46.758	-7.19793	292.823	39.1718	0.25514	327.831	19.7616	2.7822	304.082	28.3663	-11.9186	283.971	28.5389	9.52054	316.236	6.38082	1.55167	292.278	17.8927	-5.11886	278.096	19.45	20.5551	307.566	-4.61886	4.79064	287.904	3.90747	-0.726933	276.925	12.573	24.2762	311.186	-3.89499	50.7858	286.596	-10.7124	67.3009	301.349	17.5651	64.9442	
131	1.09167	283.391	40.8211	54.2901	291.333	56.4757	34.1555	310.462	66.9375	17.4695	321.476	72.0842	5.50522	332.154	48.2735	18.4554	320.35	49.5075	-7.96109	291.43	43.932	1.30943	330.27	25.1023	9.10409	305.436	30.2728	-11.4697	283.966	24.9995	11.3713	320.617	9.3403	5.18018	296.033	18.3741	-4.93727	280.929	17.1145	20.7049	313.764	-3.95475	6.07374	291.037	7.09998	2.7544	279.608	11.4991	23.449	312.815	0.194322	52.4428	295.595	-5.88284	68.7991	305.208	21.4712	65.2917	
132	1.1	278.522	45.526	55.4495	290.842	60.3071	33.7557	310.523	70.2415	18.1702	322.351	73.0236	5.6257	332.264	47.3129	17.6446	319.394	48.5392	-7.80239	287.322	43.3395	3.31944	332.733	33.382	9.79085	307.657	32.1664	-12.3367	285.337	26.5185	7.1104	323.106	14.181	4.55772	300.294	20.4925	-5.13243	283.991	21.1694	20.3317	318.439	-2.49051	8.88	294.084	9.92393	3.64461	286.779	13.4493	24.2339	317.402	0.949729	54.238	294.68	-6.43491	69.4883	302.821	24.7356	69.5146	
133	1.10833	279.171	47.3115	55.7296	295.42	59.4753	32.3749	307.971	67.7397	19.1559	321.698	75.5477	4.58312	331.171	56.0388	15.1547	315.024	53.8579	-7.50198	288.156	40.0404	1.90672	331.781	32.9411	6.37864	311.088	37.871	-11.7185	284.948	27.4223	7.47069	324.938	15.8156	5.10259	299.885	18.8304	-5.30936	283.6	16.757	17.704	318.565	0.0452474	5.21673	293.397	8.63971	3.36664	287.937	14.6195	23.1665	319.077	5.52488	51.8324	300.078	1.82335	69.7635	304.673	29.2042	67.3256	
134	1.11667	280.269	43.7219	55.5212	290.575	58.9386	32.9701	305.935	74.8836	17.1425	320.11	81.1006	3.11787	330.527	55.415	15.1192	313.96	58.0115	-8.13011	285.64	43.9638	1.8191	331.154	39.9444	6.64141	307.218	37.1078	-12.465	283.712	27.474	12.3473	325.115	21.8078	4.51925	300.365	22.5475	-4.98751	284.78	21.8317	22.8834	321.726	3.94599	8.5571	295.976	12.9752	4.02666	287.576	15.4052	24.7512	319.25	8.86382	54.8379	296.988	0.388782	70.4769	305.184	26.5697	68.3588	
135	1.125	279.184	46.6267	54.5005	286.159	63.205	31.6244	301.549	75.6664	15.7867	314.638	80.3891	2.57804	325.665	61.1745	15.8494	312.229	54.4531	-9.71171	286.056	41.1921	-1.28215	328.701	39.7775	3.77157	305.647	36.4591	-13.0926	282.943	27.9408	7.05501	322.682	23.7046	1.60728	296.106	22.4664	-3.30767	283.969	18.4905	18.3256	320.591	6.41336	8.28481	294.533	10.0422	3.29553	285.515	12.355	25.9048	321.576	11.4104	50.9543	299.861	2.58855	72.4826	306.08	31.5709	64.6386	
136	1.13333	273.063	44.4027	53.9936	284.148	58.6864	30.6723	296.374	70.4138	15.3964	308.976	80.0292	1.09907	323.237	59.0392	14.5412	307.176	59.2715	-11.1282	282.894	39.8134	0.361742	325.723	41.6398	4.13272	304.647	39.2435	-14.074	282.507	26.1523	6.91474	323.456	22.166	3.95786	298.044	20.2559	-4.88429	282.183	17.1401	20.1745	321.653	8.43372	7.38628	295.654	8.99088	3.1455	286.269	14.2909	25.7591	322.387	14.3413	51.946	300.461	0.983564	70.4571	304.773	32.7654	65.7597	
